<mxfile host="app.diagrams.net" modified="2024-02-16T19:40:53.437Z" agent="Mozilla/5.0 (X11; Linux x86_64) AppleWebKit/537.36 (KHTML, like Gecko) Chrome/120.0.0.0 Safari/537.36" etag="bZBqFOAtiVPCzu7AMTri" version="23.1.2" type="device" pages="3">
  <diagram name="Architecture" id="CKOwGVDVk4OWQvsBjlr9">
    <mxGraphModel dx="1423" dy="630" grid="1" gridSize="10" guides="1" tooltips="1" connect="1" arrows="1" fold="1" page="1" pageScale="1" pageWidth="850" pageHeight="1100" math="0" shadow="0">
      <root>
        <mxCell id="0" />
        <mxCell id="1" parent="0" />
        <mxCell id="V2XP5RtjtoZQ21mpzTwn-7" style="edgeStyle=orthogonalEdgeStyle;rounded=0;orthogonalLoop=1;jettySize=auto;html=1;exitX=0.25;exitY=1;exitDx=0;exitDy=0;entryX=0.5;entryY=0;entryDx=0;entryDy=0;" parent="1" source="V2XP5RtjtoZQ21mpzTwn-3" target="V2XP5RtjtoZQ21mpzTwn-5" edge="1">
          <mxGeometry relative="1" as="geometry">
            <Array as="points">
              <mxPoint x="220" y="200" />
            </Array>
          </mxGeometry>
        </mxCell>
        <mxCell id="V2XP5RtjtoZQ21mpzTwn-8" style="edgeStyle=orthogonalEdgeStyle;rounded=0;orthogonalLoop=1;jettySize=auto;html=1;exitX=0.75;exitY=1;exitDx=0;exitDy=0;entryX=0.5;entryY=0;entryDx=0;entryDy=0;" parent="1" source="V2XP5RtjtoZQ21mpzTwn-3" target="V2XP5RtjtoZQ21mpzTwn-6" edge="1">
          <mxGeometry relative="1" as="geometry">
            <Array as="points">
              <mxPoint x="340" y="200" />
            </Array>
          </mxGeometry>
        </mxCell>
        <mxCell id="V2XP5RtjtoZQ21mpzTwn-10" style="edgeStyle=orthogonalEdgeStyle;rounded=0;orthogonalLoop=1;jettySize=auto;html=1;exitX=0.5;exitY=0;exitDx=0;exitDy=0;entryX=0.5;entryY=1;entryDx=0;entryDy=0;" parent="1" source="V2XP5RtjtoZQ21mpzTwn-3" target="V2XP5RtjtoZQ21mpzTwn-9" edge="1">
          <mxGeometry relative="1" as="geometry" />
        </mxCell>
        <mxCell id="V2XP5RtjtoZQ21mpzTwn-20" style="edgeStyle=orthogonalEdgeStyle;rounded=0;orthogonalLoop=1;jettySize=auto;html=1;exitX=1;exitY=0.25;exitDx=0;exitDy=0;entryX=0;entryY=0.25;entryDx=0;entryDy=0;" parent="1" source="V2XP5RtjtoZQ21mpzTwn-3" target="V2XP5RtjtoZQ21mpzTwn-4" edge="1">
          <mxGeometry relative="1" as="geometry" />
        </mxCell>
        <mxCell id="V2XP5RtjtoZQ21mpzTwn-22" value="Start game" style="edgeLabel;html=1;align=center;verticalAlign=middle;resizable=0;points=[];" parent="V2XP5RtjtoZQ21mpzTwn-20" vertex="1" connectable="0">
          <mxGeometry x="-0.1889" relative="1" as="geometry">
            <mxPoint x="23" y="-10" as="offset" />
          </mxGeometry>
        </mxCell>
        <mxCell id="V2XP5RtjtoZQ21mpzTwn-3" value="Web App" style="rounded=0;whiteSpace=wrap;html=1;" parent="1" vertex="1">
          <mxGeometry x="200" y="120" width="160" height="80" as="geometry" />
        </mxCell>
        <mxCell id="V2XP5RtjtoZQ21mpzTwn-23" style="edgeStyle=orthogonalEdgeStyle;rounded=0;orthogonalLoop=1;jettySize=auto;html=1;exitX=0;exitY=0.75;exitDx=0;exitDy=0;entryX=1;entryY=0.75;entryDx=0;entryDy=0;" parent="1" source="V2XP5RtjtoZQ21mpzTwn-4" target="V2XP5RtjtoZQ21mpzTwn-3" edge="1">
          <mxGeometry relative="1" as="geometry" />
        </mxCell>
        <mxCell id="V2XP5RtjtoZQ21mpzTwn-24" value="Update player&lt;br&gt;stats after game" style="edgeLabel;html=1;align=center;verticalAlign=middle;resizable=0;points=[];" parent="V2XP5RtjtoZQ21mpzTwn-23" vertex="1" connectable="0">
          <mxGeometry x="0.1333" y="-3" relative="1" as="geometry">
            <mxPoint x="15" y="-12" as="offset" />
          </mxGeometry>
        </mxCell>
        <mxCell id="V2XP5RtjtoZQ21mpzTwn-4" value="Game App" style="rounded=0;whiteSpace=wrap;html=1;fillColor=#99CCFF;" parent="1" vertex="1">
          <mxGeometry x="640" y="120" width="160" height="80" as="geometry" />
        </mxCell>
        <mxCell id="V2XP5RtjtoZQ21mpzTwn-5" value="Frontend" style="rounded=0;whiteSpace=wrap;html=1;" parent="1" vertex="1">
          <mxGeometry x="180" y="280" width="80" height="40" as="geometry" />
        </mxCell>
        <mxCell id="V2XP5RtjtoZQ21mpzTwn-6" value="Backend" style="rounded=0;whiteSpace=wrap;html=1;" parent="1" vertex="1">
          <mxGeometry x="300" y="280" width="80" height="40" as="geometry" />
        </mxCell>
        <mxCell id="V2XP5RtjtoZQ21mpzTwn-9" value="MySQL" style="shape=datastore;whiteSpace=wrap;html=1;" parent="1" vertex="1">
          <mxGeometry x="250" y="10" width="60" height="60" as="geometry" />
        </mxCell>
        <mxCell id="V2XP5RtjtoZQ21mpzTwn-11" value="User authentication" style="ellipse;whiteSpace=wrap;html=1;fillColor=#99CCFF;" parent="1" vertex="1">
          <mxGeometry x="220" y="360" width="120" height="60" as="geometry" />
        </mxCell>
        <mxCell id="V2XP5RtjtoZQ21mpzTwn-12" value="Manage users" style="ellipse;whiteSpace=wrap;html=1;fillColor=#FF9999;" parent="1" vertex="1">
          <mxGeometry x="220" y="440" width="120" height="60" as="geometry" />
        </mxCell>
        <mxCell id="V2XP5RtjtoZQ21mpzTwn-13" value="Manage question banks" style="ellipse;whiteSpace=wrap;html=1;fillColor=#71368A;" parent="1" vertex="1">
          <mxGeometry x="220" y="600" width="120" height="60" as="geometry" />
        </mxCell>
        <mxCell id="V2XP5RtjtoZQ21mpzTwn-14" value="Browse question banks" style="ellipse;whiteSpace=wrap;html=1;fillColor=#71368A;" parent="1" vertex="1">
          <mxGeometry x="220" y="520" width="120" height="60" as="geometry" />
        </mxCell>
        <mxCell id="V2XP5RtjtoZQ21mpzTwn-17" value="Participate in real-time game" style="ellipse;whiteSpace=wrap;html=1;fillColor=#99CCFF;" parent="1" vertex="1">
          <mxGeometry x="660" y="20" width="120" height="60" as="geometry" />
        </mxCell>
        <mxCell id="V2XP5RtjtoZQ21mpzTwn-25" value="" style="shape=link;html=1;rounded=0;" parent="1" edge="1">
          <mxGeometry width="100" relative="1" as="geometry">
            <mxPoint x="440" y="320" as="sourcePoint" />
            <mxPoint x="440" y="40" as="targetPoint" />
          </mxGeometry>
        </mxCell>
        <mxCell id="V2XP5RtjtoZQ21mpzTwn-26" value="" style="shape=link;html=1;rounded=0;" parent="1" edge="1">
          <mxGeometry width="100" relative="1" as="geometry">
            <mxPoint x="560" y="320" as="sourcePoint" />
            <mxPoint x="560" y="40" as="targetPoint" />
          </mxGeometry>
        </mxCell>
        <mxCell id="V2XP5RtjtoZQ21mpzTwn-27" value="Message Broker&lt;br&gt;&lt;font style=&quot;font-size: 10px;&quot;&gt;(Redis, SQS,&lt;br&gt;Service Bus, etc.)&lt;/font&gt;" style="rounded=0;whiteSpace=wrap;html=1;fillColor=#99CCFF;" parent="1" vertex="1">
          <mxGeometry x="440" y="40" width="120" height="60" as="geometry" />
        </mxCell>
        <mxCell id="V2XP5RtjtoZQ21mpzTwn-28" value="" style="endArrow=none;html=1;rounded=0;" parent="1" edge="1">
          <mxGeometry width="50" height="50" relative="1" as="geometry">
            <mxPoint x="440" y="320" as="sourcePoint" />
            <mxPoint x="560" y="320" as="targetPoint" />
          </mxGeometry>
        </mxCell>
        <mxCell id="V2XP5RtjtoZQ21mpzTwn-31" style="edgeStyle=orthogonalEdgeStyle;rounded=0;orthogonalLoop=1;jettySize=auto;html=1;exitX=0.5;exitY=0;exitDx=0;exitDy=0;entryX=0.5;entryY=1;entryDx=0;entryDy=0;" parent="1" source="V2XP5RtjtoZQ21mpzTwn-29" target="V2XP5RtjtoZQ21mpzTwn-30" edge="1">
          <mxGeometry relative="1" as="geometry" />
        </mxCell>
        <mxCell id="V2XP5RtjtoZQ21mpzTwn-29" value="Game&lt;br&gt;Web Frontend" style="rounded=0;whiteSpace=wrap;html=1;fillColor=#FF9999;" parent="1" vertex="1">
          <mxGeometry x="440" y="480" width="120" height="40" as="geometry" />
        </mxCell>
        <mxCell id="V2XP5RtjtoZQ21mpzTwn-32" style="edgeStyle=orthogonalEdgeStyle;rounded=0;orthogonalLoop=1;jettySize=auto;html=1;exitX=0.5;exitY=1;exitDx=0;exitDy=0;entryX=0.5;entryY=0;entryDx=0;entryDy=0;" parent="1" source="V2XP5RtjtoZQ21mpzTwn-30" target="V2XP5RtjtoZQ21mpzTwn-29" edge="1">
          <mxGeometry relative="1" as="geometry" />
        </mxCell>
        <mxCell id="V2XP5RtjtoZQ21mpzTwn-33" value="WebSocket" style="edgeLabel;html=1;align=center;verticalAlign=middle;resizable=0;points=[];" parent="V2XP5RtjtoZQ21mpzTwn-32" vertex="1" connectable="0">
          <mxGeometry x="0.2326" y="2" relative="1" as="geometry">
            <mxPoint x="38" y="-10" as="offset" />
          </mxGeometry>
        </mxCell>
        <mxCell id="V2XP5RtjtoZQ21mpzTwn-34" style="edgeStyle=orthogonalEdgeStyle;rounded=0;orthogonalLoop=1;jettySize=auto;html=1;exitX=0.5;exitY=0;exitDx=0;exitDy=0;entryX=0.5;entryY=1;entryDx=0;entryDy=0;" parent="1" source="V2XP5RtjtoZQ21mpzTwn-30" target="V2XP5RtjtoZQ21mpzTwn-4" edge="1">
          <mxGeometry relative="1" as="geometry">
            <Array as="points">
              <mxPoint x="500" y="260" />
              <mxPoint x="720" y="260" />
            </Array>
          </mxGeometry>
        </mxCell>
        <mxCell id="V2XP5RtjtoZQ21mpzTwn-30" value="Web Connector&lt;br&gt;&lt;font style=&quot;font-size: 9px;&quot;&gt;(translates WebSocket to internal messages)&lt;/font&gt;" style="rounded=0;whiteSpace=wrap;html=1;fillColor=#FF9999;" parent="1" vertex="1">
          <mxGeometry x="440" y="360" width="120" height="80" as="geometry" />
        </mxCell>
        <mxCell id="V2XP5RtjtoZQ21mpzTwn-54" style="edgeStyle=orthogonalEdgeStyle;rounded=0;orthogonalLoop=1;jettySize=auto;html=1;exitX=0.5;exitY=0;exitDx=0;exitDy=0;entryX=0.25;entryY=1;entryDx=0;entryDy=0;" parent="1" target="V2XP5RtjtoZQ21mpzTwn-4" edge="1">
          <mxGeometry relative="1" as="geometry">
            <Array as="points">
              <mxPoint x="720" y="300" />
              <mxPoint x="520" y="300" />
              <mxPoint x="520" y="230" />
              <mxPoint x="680" y="230" />
            </Array>
            <mxPoint x="720" y="360" as="sourcePoint" />
          </mxGeometry>
        </mxCell>
        <mxCell id="V2XP5RtjtoZQ21mpzTwn-44" style="edgeStyle=orthogonalEdgeStyle;rounded=0;orthogonalLoop=1;jettySize=auto;html=1;entryX=0;entryY=0.5;entryDx=0;entryDy=0;" parent="1" source="V2XP5RtjtoZQ21mpzTwn-37" target="V2XP5RtjtoZQ21mpzTwn-5" edge="1">
          <mxGeometry relative="1" as="geometry" />
        </mxCell>
        <mxCell id="V2XP5RtjtoZQ21mpzTwn-37" value="Player" style="shape=umlActor;verticalLabelPosition=bottom;verticalAlign=top;html=1;outlineConnect=0;" parent="1" vertex="1">
          <mxGeometry x="100" y="270" width="30" height="60" as="geometry" />
        </mxCell>
        <mxCell id="V2XP5RtjtoZQ21mpzTwn-49" style="edgeStyle=orthogonalEdgeStyle;rounded=0;orthogonalLoop=1;jettySize=auto;html=1;entryX=0.5;entryY=1;entryDx=0;entryDy=0;" parent="1" source="V2XP5RtjtoZQ21mpzTwn-45" target="V2XP5RtjtoZQ21mpzTwn-29" edge="1">
          <mxGeometry relative="1" as="geometry" />
        </mxCell>
        <mxCell id="V2XP5RtjtoZQ21mpzTwn-45" value="Player" style="shape=umlActor;verticalLabelPosition=bottom;verticalAlign=top;html=1;outlineConnect=0;" parent="1" vertex="1">
          <mxGeometry x="485" y="570" width="30" height="60" as="geometry" />
        </mxCell>
        <mxCell id="iza-3mviySzvo1zXxwD4-1" value="Theo" style="ellipse;whiteSpace=wrap;html=1;aspect=fixed;fillColor=#99CCFF;" parent="1" vertex="1">
          <mxGeometry x="40" y="40" width="40" height="40" as="geometry" />
        </mxCell>
        <mxCell id="iza-3mviySzvo1zXxwD4-2" value="Mari" style="ellipse;whiteSpace=wrap;html=1;aspect=fixed;fillColor=#FF9999;" parent="1" vertex="1">
          <mxGeometry x="40" y="80" width="40" height="40" as="geometry" />
        </mxCell>
        <mxCell id="iza-3mviySzvo1zXxwD4-3" value="Ceco" style="ellipse;whiteSpace=wrap;html=1;aspect=fixed;fillColor=#71368A;" parent="1" vertex="1">
          <mxGeometry x="40" y="120" width="40" height="40" as="geometry" />
        </mxCell>
      </root>
    </mxGraphModel>
  </diagram>
  <diagram name="Architecture (Plain)" id="DcWm70zQJjJA3R4WxK5D">
    <mxGraphModel dx="1423" dy="630" grid="1" gridSize="10" guides="1" tooltips="1" connect="1" arrows="1" fold="1" page="1" pageScale="1" pageWidth="850" pageHeight="1100" math="0" shadow="0">
      <root>
        <mxCell id="gY20yJPELoPJgGHhR3iF-0" />
        <mxCell id="gY20yJPELoPJgGHhR3iF-1" parent="gY20yJPELoPJgGHhR3iF-0" />
        <mxCell id="gY20yJPELoPJgGHhR3iF-2" style="edgeStyle=orthogonalEdgeStyle;rounded=0;orthogonalLoop=1;jettySize=auto;html=1;exitX=0.25;exitY=1;exitDx=0;exitDy=0;entryX=0.5;entryY=0;entryDx=0;entryDy=0;" edge="1" parent="gY20yJPELoPJgGHhR3iF-1" target="gY20yJPELoPJgGHhR3iF-11">
          <mxGeometry relative="1" as="geometry">
            <Array as="points">
              <mxPoint x="180" y="200" />
            </Array>
            <mxPoint x="140" y="200" as="sourcePoint" />
          </mxGeometry>
        </mxCell>
        <mxCell id="gY20yJPELoPJgGHhR3iF-3" style="edgeStyle=orthogonalEdgeStyle;rounded=0;orthogonalLoop=1;jettySize=auto;html=1;exitX=0.75;exitY=1;exitDx=0;exitDy=0;entryX=0.5;entryY=0;entryDx=0;entryDy=0;" edge="1" parent="gY20yJPELoPJgGHhR3iF-1" target="gY20yJPELoPJgGHhR3iF-12">
          <mxGeometry relative="1" as="geometry">
            <Array as="points">
              <mxPoint x="300" y="200" />
            </Array>
            <mxPoint x="260" y="200" as="sourcePoint" />
          </mxGeometry>
        </mxCell>
        <mxCell id="gY20yJPELoPJgGHhR3iF-4" style="edgeStyle=orthogonalEdgeStyle;rounded=0;orthogonalLoop=1;jettySize=auto;html=1;exitX=0.5;exitY=0;exitDx=0;exitDy=0;entryX=0.5;entryY=1;entryDx=0;entryDy=0;" edge="1" parent="gY20yJPELoPJgGHhR3iF-1" source="gY20yJPELoPJgGHhR3iF-7" target="gY20yJPELoPJgGHhR3iF-13">
          <mxGeometry relative="1" as="geometry" />
        </mxCell>
        <mxCell id="gY20yJPELoPJgGHhR3iF-5" style="edgeStyle=orthogonalEdgeStyle;rounded=0;orthogonalLoop=1;jettySize=auto;html=1;exitX=1;exitY=0.25;exitDx=0;exitDy=0;entryX=0;entryY=0.25;entryDx=0;entryDy=0;" edge="1" parent="gY20yJPELoPJgGHhR3iF-1" source="gY20yJPELoPJgGHhR3iF-7" target="gY20yJPELoPJgGHhR3iF-10">
          <mxGeometry relative="1" as="geometry">
            <Array as="points">
              <mxPoint x="490" y="125" />
              <mxPoint x="490" y="140" />
            </Array>
          </mxGeometry>
        </mxCell>
        <mxCell id="gY20yJPELoPJgGHhR3iF-6" value="Start game" style="edgeLabel;html=1;align=center;verticalAlign=middle;resizable=0;points=[];" vertex="1" connectable="0" parent="gY20yJPELoPJgGHhR3iF-5">
          <mxGeometry x="-0.1889" relative="1" as="geometry">
            <mxPoint x="23" y="-10" as="offset" />
          </mxGeometry>
        </mxCell>
        <mxCell id="gY20yJPELoPJgGHhR3iF-7" value="&amp;nbsp; Web App" style="rounded=0;whiteSpace=wrap;html=1;align=left;" vertex="1" parent="gY20yJPELoPJgGHhR3iF-1">
          <mxGeometry x="120" y="100" width="240" height="100" as="geometry" />
        </mxCell>
        <mxCell id="gY20yJPELoPJgGHhR3iF-8" style="edgeStyle=orthogonalEdgeStyle;rounded=0;orthogonalLoop=1;jettySize=auto;html=1;exitX=0;exitY=0.75;exitDx=0;exitDy=0;entryX=1;entryY=0.5;entryDx=0;entryDy=0;" edge="1" parent="gY20yJPELoPJgGHhR3iF-1" source="gY20yJPELoPJgGHhR3iF-10" target="gY20yJPELoPJgGHhR3iF-7">
          <mxGeometry relative="1" as="geometry">
            <Array as="points">
              <mxPoint x="490" y="180" />
              <mxPoint x="490" y="150" />
            </Array>
          </mxGeometry>
        </mxCell>
        <mxCell id="gY20yJPELoPJgGHhR3iF-9" value="Update player&lt;br&gt;stats after game" style="edgeLabel;html=1;align=center;verticalAlign=middle;resizable=0;points=[];" vertex="1" connectable="0" parent="gY20yJPELoPJgGHhR3iF-8">
          <mxGeometry x="0.1333" y="-3" relative="1" as="geometry">
            <mxPoint x="27" y="53" as="offset" />
          </mxGeometry>
        </mxCell>
        <mxCell id="gY20yJPELoPJgGHhR3iF-10" value="Game App" style="rounded=0;whiteSpace=wrap;html=1;fillColor=default;" vertex="1" parent="gY20yJPELoPJgGHhR3iF-1">
          <mxGeometry x="590" y="120" width="160" height="80" as="geometry" />
        </mxCell>
        <mxCell id="gY20yJPELoPJgGHhR3iF-11" value="Frontend" style="rounded=0;whiteSpace=wrap;html=1;" vertex="1" parent="gY20yJPELoPJgGHhR3iF-1">
          <mxGeometry x="140" y="250" width="80" height="40" as="geometry" />
        </mxCell>
        <mxCell id="gY20yJPELoPJgGHhR3iF-12" value="Backend" style="rounded=0;whiteSpace=wrap;html=1;" vertex="1" parent="gY20yJPELoPJgGHhR3iF-1">
          <mxGeometry x="260" y="250" width="80" height="40" as="geometry" />
        </mxCell>
        <mxCell id="gY20yJPELoPJgGHhR3iF-13" value="MySQL" style="shape=datastore;whiteSpace=wrap;html=1;" vertex="1" parent="gY20yJPELoPJgGHhR3iF-1">
          <mxGeometry x="210" width="60" height="60" as="geometry" />
        </mxCell>
        <mxCell id="gY20yJPELoPJgGHhR3iF-14" value="User authentication" style="ellipse;whiteSpace=wrap;html=1;fillColor=default;" vertex="1" parent="gY20yJPELoPJgGHhR3iF-1">
          <mxGeometry x="120" y="320" width="120" height="60" as="geometry" />
        </mxCell>
        <mxCell id="gY20yJPELoPJgGHhR3iF-15" value="Manage users" style="ellipse;whiteSpace=wrap;html=1;fillColor=default;" vertex="1" parent="gY20yJPELoPJgGHhR3iF-1">
          <mxGeometry x="120" y="400" width="120" height="60" as="geometry" />
        </mxCell>
        <mxCell id="gY20yJPELoPJgGHhR3iF-16" value="Manage question banks" style="ellipse;whiteSpace=wrap;html=1;fillColor=default;" vertex="1" parent="gY20yJPELoPJgGHhR3iF-1">
          <mxGeometry x="120" y="560" width="120" height="60" as="geometry" />
        </mxCell>
        <mxCell id="gY20yJPELoPJgGHhR3iF-17" value="Browse question banks" style="ellipse;whiteSpace=wrap;html=1;fillColor=default;" vertex="1" parent="gY20yJPELoPJgGHhR3iF-1">
          <mxGeometry x="120" y="480" width="120" height="60" as="geometry" />
        </mxCell>
        <mxCell id="gY20yJPELoPJgGHhR3iF-18" value="Participate in real-time game" style="ellipse;whiteSpace=wrap;html=1;fillColor=default;" vertex="1" parent="gY20yJPELoPJgGHhR3iF-1">
          <mxGeometry x="620" y="40" width="120" height="60" as="geometry" />
        </mxCell>
        <mxCell id="gY20yJPELoPJgGHhR3iF-19" value="" style="shape=link;html=1;rounded=0;" edge="1" parent="gY20yJPELoPJgGHhR3iF-1">
          <mxGeometry width="100" relative="1" as="geometry">
            <mxPoint x="440" y="300" as="sourcePoint" />
            <mxPoint x="440" y="20" as="targetPoint" />
          </mxGeometry>
        </mxCell>
        <mxCell id="gY20yJPELoPJgGHhR3iF-20" value="" style="shape=link;html=1;rounded=0;" edge="1" parent="gY20yJPELoPJgGHhR3iF-1">
          <mxGeometry width="100" relative="1" as="geometry">
            <mxPoint x="560" y="300" as="sourcePoint" />
            <mxPoint x="560" y="20" as="targetPoint" />
          </mxGeometry>
        </mxCell>
        <mxCell id="gY20yJPELoPJgGHhR3iF-21" value="Message Broker&lt;br&gt;&lt;font style=&quot;font-size: 10px;&quot;&gt;(Redis, SQS,&lt;br&gt;Service Bus, etc.)&lt;/font&gt;" style="rounded=0;whiteSpace=wrap;html=1;fillColor=default;" vertex="1" parent="gY20yJPELoPJgGHhR3iF-1">
          <mxGeometry x="440" y="20" width="120" height="60" as="geometry" />
        </mxCell>
        <mxCell id="gY20yJPELoPJgGHhR3iF-22" value="" style="endArrow=none;html=1;rounded=0;" edge="1" parent="gY20yJPELoPJgGHhR3iF-1">
          <mxGeometry width="50" height="50" relative="1" as="geometry">
            <mxPoint x="440" y="300" as="sourcePoint" />
            <mxPoint x="560" y="300" as="targetPoint" />
          </mxGeometry>
        </mxCell>
        <mxCell id="gY20yJPELoPJgGHhR3iF-27" style="edgeStyle=orthogonalEdgeStyle;rounded=0;orthogonalLoop=1;jettySize=auto;html=1;entryX=0.5;entryY=1;entryDx=0;entryDy=0;exitX=1;exitY=0.75;exitDx=0;exitDy=0;" edge="1" parent="gY20yJPELoPJgGHhR3iF-1" source="gY20yJPELoPJgGHhR3iF-28" target="gY20yJPELoPJgGHhR3iF-10">
          <mxGeometry relative="1" as="geometry">
            <Array as="points">
              <mxPoint x="400" y="170" />
              <mxPoint x="400" y="260" />
              <mxPoint x="670" y="260" />
            </Array>
            <mxPoint x="400" y="180" as="sourcePoint" />
          </mxGeometry>
        </mxCell>
        <mxCell id="gY20yJPELoPJgGHhR3iF-28" value="Web Connector&lt;br&gt;&lt;font style=&quot;font-size: 9px;&quot;&gt;(translates WebSocket to internal messages)&lt;/font&gt;" style="rounded=0;whiteSpace=wrap;html=1;fillColor=default;" vertex="1" parent="gY20yJPELoPJgGHhR3iF-1">
          <mxGeometry x="230" y="110" width="120" height="80" as="geometry" />
        </mxCell>
        <mxCell id="gY20yJPELoPJgGHhR3iF-30" style="edgeStyle=orthogonalEdgeStyle;rounded=0;orthogonalLoop=1;jettySize=auto;html=1;entryX=0;entryY=0.5;entryDx=0;entryDy=0;" edge="1" parent="gY20yJPELoPJgGHhR3iF-1" source="gY20yJPELoPJgGHhR3iF-31" target="gY20yJPELoPJgGHhR3iF-11">
          <mxGeometry relative="1" as="geometry" />
        </mxCell>
        <mxCell id="gY20yJPELoPJgGHhR3iF-31" value="Player" style="shape=umlActor;verticalLabelPosition=bottom;verticalAlign=top;html=1;outlineConnect=0;" vertex="1" parent="gY20yJPELoPJgGHhR3iF-1">
          <mxGeometry x="60" y="240" width="30" height="60" as="geometry" />
        </mxCell>
      </root>
    </mxGraphModel>
  </diagram>
  <diagram id="DVlU43qrFAG9CoHX97Bi" name="State Chart">
    <mxGraphModel dx="981" dy="434" grid="1" gridSize="10" guides="1" tooltips="1" connect="1" arrows="1" fold="1" page="1" pageScale="1" pageWidth="850" pageHeight="1100" math="0" shadow="0">
      <root>
        <mxCell id="0" />
        <mxCell id="1" parent="0" />
        <mxCell id="FZ6YAjT_iZpK0p9eLZ_Y-1" value="" style="ellipse;html=1;shape=startState;fillColor=#000000;strokeColor=#000000;" vertex="1" parent="1">
          <mxGeometry x="50" y="85" width="30" height="30" as="geometry" />
        </mxCell>
        <mxCell id="FZ6YAjT_iZpK0p9eLZ_Y-2" value="" style="edgeStyle=orthogonalEdgeStyle;html=1;verticalAlign=bottom;endArrow=open;endSize=8;strokeColor=#000000;rounded=0;entryX=0;entryY=0.5;entryDx=0;entryDy=0;" edge="1" source="FZ6YAjT_iZpK0p9eLZ_Y-1" parent="1" target="FZ6YAjT_iZpK0p9eLZ_Y-3">
          <mxGeometry relative="1" as="geometry">
            <mxPoint x="160" y="150" as="targetPoint" />
          </mxGeometry>
        </mxCell>
        <mxCell id="FZ6YAjT_iZpK0p9eLZ_Y-9" value="new_game" style="edgeLabel;html=1;align=center;verticalAlign=middle;resizable=0;points=[];" vertex="1" connectable="0" parent="FZ6YAjT_iZpK0p9eLZ_Y-2">
          <mxGeometry x="-0.0499" y="-2" relative="1" as="geometry">
            <mxPoint y="-12" as="offset" />
          </mxGeometry>
        </mxCell>
        <mxCell id="FZ6YAjT_iZpK0p9eLZ_Y-10" style="edgeStyle=orthogonalEdgeStyle;rounded=0;orthogonalLoop=1;jettySize=auto;html=1;exitX=1;exitY=0.5;exitDx=0;exitDy=0;entryX=0;entryY=0.5;entryDx=0;entryDy=0;" edge="1" parent="1" source="FZ6YAjT_iZpK0p9eLZ_Y-3" target="FZ6YAjT_iZpK0p9eLZ_Y-8">
          <mxGeometry relative="1" as="geometry" />
        </mxCell>
        <mxCell id="FZ6YAjT_iZpK0p9eLZ_Y-11" value="start_game" style="edgeLabel;html=1;align=center;verticalAlign=middle;resizable=0;points=[];" vertex="1" connectable="0" parent="FZ6YAjT_iZpK0p9eLZ_Y-10">
          <mxGeometry x="-0.1361" y="-2" relative="1" as="geometry">
            <mxPoint x="6" y="-12" as="offset" />
          </mxGeometry>
        </mxCell>
        <mxCell id="FZ6YAjT_iZpK0p9eLZ_Y-3" value="Lobby" style="rounded=1;whiteSpace=wrap;html=1;" vertex="1" parent="1">
          <mxGeometry x="160" y="80" width="120" height="40" as="geometry" />
        </mxCell>
        <mxCell id="FZ6YAjT_iZpK0p9eLZ_Y-6" style="edgeStyle=orthogonalEdgeStyle;rounded=0;orthogonalLoop=1;jettySize=auto;html=1;exitX=0.25;exitY=1;exitDx=0;exitDy=0;entryX=0.75;entryY=1;entryDx=0;entryDy=0;" edge="1" parent="1" source="FZ6YAjT_iZpK0p9eLZ_Y-3" target="FZ6YAjT_iZpK0p9eLZ_Y-3">
          <mxGeometry relative="1" as="geometry">
            <Array as="points">
              <mxPoint x="190" y="150" />
              <mxPoint x="250" y="150" />
            </Array>
          </mxGeometry>
        </mxCell>
        <mxCell id="FZ6YAjT_iZpK0p9eLZ_Y-7" value="join_game" style="edgeLabel;html=1;align=center;verticalAlign=middle;resizable=0;points=[];" vertex="1" connectable="0" parent="FZ6YAjT_iZpK0p9eLZ_Y-6">
          <mxGeometry x="-0.3051" relative="1" as="geometry">
            <mxPoint x="17" y="10" as="offset" />
          </mxGeometry>
        </mxCell>
        <mxCell id="FZ6YAjT_iZpK0p9eLZ_Y-16" style="edgeStyle=orthogonalEdgeStyle;rounded=0;orthogonalLoop=1;jettySize=auto;html=1;exitX=1;exitY=0.5;exitDx=0;exitDy=0;entryX=0;entryY=0.5;entryDx=0;entryDy=0;" edge="1" parent="1" source="FZ6YAjT_iZpK0p9eLZ_Y-8" target="FZ6YAjT_iZpK0p9eLZ_Y-15">
          <mxGeometry relative="1" as="geometry" />
        </mxCell>
        <mxCell id="FZ6YAjT_iZpK0p9eLZ_Y-17" value="answer_question&lt;br&gt;(after all players&lt;br&gt;have answered)" style="edgeLabel;html=1;align=center;verticalAlign=middle;resizable=0;points=[];" vertex="1" connectable="0" parent="FZ6YAjT_iZpK0p9eLZ_Y-16">
          <mxGeometry x="-0.1246" relative="1" as="geometry">
            <mxPoint x="4" y="-24" as="offset" />
          </mxGeometry>
        </mxCell>
        <mxCell id="FZ6YAjT_iZpK0p9eLZ_Y-8" value="Question" style="rounded=1;whiteSpace=wrap;html=1;" vertex="1" parent="1">
          <mxGeometry x="360" y="80" width="120" height="40" as="geometry" />
        </mxCell>
        <mxCell id="FZ6YAjT_iZpK0p9eLZ_Y-13" style="edgeStyle=orthogonalEdgeStyle;rounded=0;orthogonalLoop=1;jettySize=auto;html=1;exitX=0.25;exitY=0;exitDx=0;exitDy=0;entryX=0.75;entryY=0;entryDx=0;entryDy=0;" edge="1" parent="1" source="FZ6YAjT_iZpK0p9eLZ_Y-8" target="FZ6YAjT_iZpK0p9eLZ_Y-8">
          <mxGeometry relative="1" as="geometry">
            <Array as="points">
              <mxPoint x="390" y="50" />
              <mxPoint x="450" y="50" />
            </Array>
          </mxGeometry>
        </mxCell>
        <mxCell id="FZ6YAjT_iZpK0p9eLZ_Y-14" value="use_lifeline" style="edgeLabel;html=1;align=center;verticalAlign=middle;resizable=0;points=[];" vertex="1" connectable="0" parent="FZ6YAjT_iZpK0p9eLZ_Y-13">
          <mxGeometry x="0.2239" y="2" relative="1" as="geometry">
            <mxPoint x="-13" y="-8" as="offset" />
          </mxGeometry>
        </mxCell>
        <mxCell id="FZ6YAjT_iZpK0p9eLZ_Y-21" style="edgeStyle=orthogonalEdgeStyle;rounded=0;orthogonalLoop=1;jettySize=auto;html=1;exitX=0.25;exitY=1;exitDx=0;exitDy=0;entryX=0.5;entryY=1;entryDx=0;entryDy=0;" edge="1" parent="1" source="FZ6YAjT_iZpK0p9eLZ_Y-15" target="FZ6YAjT_iZpK0p9eLZ_Y-8">
          <mxGeometry relative="1" as="geometry">
            <Array as="points">
              <mxPoint x="630" y="160" />
              <mxPoint x="420" y="160" />
            </Array>
          </mxGeometry>
        </mxCell>
        <mxCell id="FZ6YAjT_iZpK0p9eLZ_Y-24" style="edgeStyle=orthogonalEdgeStyle;rounded=0;orthogonalLoop=1;jettySize=auto;html=1;exitX=0.75;exitY=1;exitDx=0;exitDy=0;entryX=0.75;entryY=0;entryDx=0;entryDy=0;" edge="1" parent="1" source="FZ6YAjT_iZpK0p9eLZ_Y-15" target="FZ6YAjT_iZpK0p9eLZ_Y-23">
          <mxGeometry relative="1" as="geometry" />
        </mxCell>
        <mxCell id="FZ6YAjT_iZpK0p9eLZ_Y-27" style="edgeStyle=orthogonalEdgeStyle;rounded=0;orthogonalLoop=1;jettySize=auto;html=1;exitX=0.75;exitY=1;exitDx=0;exitDy=0;entryX=0;entryY=0.5;entryDx=0;entryDy=0;" edge="1" parent="1" source="FZ6YAjT_iZpK0p9eLZ_Y-15" target="FZ6YAjT_iZpK0p9eLZ_Y-26">
          <mxGeometry relative="1" as="geometry" />
        </mxCell>
        <mxCell id="FZ6YAjT_iZpK0p9eLZ_Y-28" value="player_scores" style="edgeLabel;html=1;align=center;verticalAlign=middle;resizable=0;points=[];" vertex="1" connectable="0" parent="FZ6YAjT_iZpK0p9eLZ_Y-27">
          <mxGeometry x="0.2346" y="3" relative="1" as="geometry">
            <mxPoint x="12" y="-8" as="offset" />
          </mxGeometry>
        </mxCell>
        <mxCell id="FZ6YAjT_iZpK0p9eLZ_Y-15" value="Leaderboard" style="rounded=1;whiteSpace=wrap;html=1;" vertex="1" parent="1">
          <mxGeometry x="600" y="80" width="120" height="40" as="geometry" />
        </mxCell>
        <mxCell id="FZ6YAjT_iZpK0p9eLZ_Y-23" value="Results" style="rounded=1;whiteSpace=wrap;html=1;" vertex="1" parent="1">
          <mxGeometry x="600" y="240" width="120" height="40" as="geometry" />
        </mxCell>
        <mxCell id="FZ6YAjT_iZpK0p9eLZ_Y-25" value="continue&lt;br&gt;(after all players have sent)" style="edgeLabel;html=1;align=center;verticalAlign=middle;resizable=0;points=[];" vertex="1" connectable="0" parent="1">
          <mxGeometry x="660.0010493460138" y="140" as="geometry" />
        </mxCell>
        <mxCell id="FZ6YAjT_iZpK0p9eLZ_Y-26" value="" style="ellipse;html=1;shape=endState;fillColor=#000000;strokeColor=#000000;" vertex="1" parent="1">
          <mxGeometry x="800" y="180" width="30" height="30" as="geometry" />
        </mxCell>
        <mxCell id="FZ6YAjT_iZpK0p9eLZ_Y-30" value="&lt;div&gt;&amp;gt;&lt;/div&gt;&lt;div&gt;&lt;br&gt;&lt;/div&gt;&lt;div&gt;new_game&lt;/div&gt;&lt;div&gt;&lt;br&gt;&lt;/div&gt;&lt;div&gt;join_game&lt;/div&gt;&lt;div&gt;&lt;br&gt;&lt;/div&gt;&lt;div&gt;start_game&lt;/div&gt;&lt;div&gt;&lt;br&gt;&lt;/div&gt;&lt;div&gt;get_game_state&lt;/div&gt;&lt;div&gt;&lt;br&gt;&lt;/div&gt;&lt;div&gt;answer_question&lt;/div&gt;&lt;div&gt;&lt;br&gt;&lt;/div&gt;&lt;div&gt;use_lifeline&lt;/div&gt;&lt;div&gt;&lt;br&gt;&lt;/div&gt;&lt;div&gt;&amp;lt;&lt;/div&gt;&lt;div&gt;&lt;br&gt;&lt;/div&gt;&lt;div&gt;game_state&lt;/div&gt;&lt;div&gt;- state id (incremental)&lt;/div&gt;&lt;div&gt;- question:&lt;/div&gt;&lt;div&gt;&amp;nbsp; - last used lifelines&lt;/div&gt;&lt;div&gt;- leaderboard:&lt;/div&gt;&lt;div&gt;&amp;nbsp; - what the question just now was&lt;/div&gt;&lt;div&gt;&amp;nbsp; - which answer was right&lt;/div&gt;&lt;div&gt;&amp;nbsp; - who got what&lt;/div&gt;&lt;div&gt;&amp;nbsp; - what the current scores are&lt;/div&gt;&lt;div&gt;&lt;br&gt;&lt;/div&gt;&lt;div&gt;remove_answers (proxy filters to only send to given player)&lt;/div&gt;&lt;div&gt;- for fiftyfifty&lt;/div&gt;" style="text;html=1;align=left;verticalAlign=middle;resizable=0;points=[];autosize=1;strokeColor=none;fillColor=none;" vertex="1" parent="1">
          <mxGeometry x="40" y="200" width="340" height="420" as="geometry" />
        </mxCell>
      </root>
    </mxGraphModel>
  </diagram>
</mxfile>
